<mxfile host="Electron" agent="Mozilla/5.0 (Windows NT 10.0; Win64; x64) AppleWebKit/537.36 (KHTML, like Gecko) draw.io/24.7.17 Chrome/128.0.6613.36 Electron/32.0.1 Safari/537.36" version="24.7.17">
  <diagram name="Page-1" id="4H9oXmzPafto4ljivwnN">
    <mxGraphModel dx="1434" dy="836" grid="1" gridSize="10" guides="1" tooltips="1" connect="1" arrows="1" fold="1" page="1" pageScale="1" pageWidth="2339" pageHeight="3300" math="0" shadow="0">
      <root>
        <mxCell id="0" />
        <mxCell id="1" parent="0" />
        <mxCell id="eymoLQQ2lYG--AlkqNtk-2" value="Provider Network&lt;div&gt;(if present)&lt;/div&gt;" style="rounded=1;whiteSpace=wrap;html=1;fillColor=none;dashed=1;verticalAlign=top;" vertex="1" parent="1">
          <mxGeometry x="20" y="100" width="430" height="311" as="geometry" />
        </mxCell>
        <mxCell id="q-aWWqVt3g7oYGVb8VbU-9" value="" style="shape=mxgraph.cisco.computers_and_peripherals.workstation;sketch=0;html=1;pointerEvents=1;dashed=0;fillColor=#036897;strokeColor=#ffffff;strokeWidth=2;verticalLabelPosition=bottom;verticalAlign=top;align=center;outlineConnect=0;" parent="1" vertex="1">
          <mxGeometry x="981.3600000000001" y="138" width="83" height="62" as="geometry" />
        </mxCell>
        <mxCell id="q-aWWqVt3g7oYGVb8VbU-10" value="gateway router" style="shape=mxgraph.cisco.routers.router;sketch=0;html=1;pointerEvents=1;dashed=0;fillColor=#036897;strokeColor=#ffffff;strokeWidth=2;verticalLabelPosition=bottom;verticalAlign=top;align=center;outlineConnect=0;" parent="1" vertex="1">
          <mxGeometry x="640" y="240" width="78" height="53" as="geometry" />
        </mxCell>
        <mxCell id="q-aWWqVt3g7oYGVb8VbU-26" value="" style="shape=mxgraph.cisco.computers_and_peripherals.workstation;sketch=0;html=1;pointerEvents=1;dashed=0;fillColor=#036897;strokeColor=#ffffff;strokeWidth=2;verticalLabelPosition=bottom;verticalAlign=top;align=center;outlineConnect=0;" parent="1" vertex="1">
          <mxGeometry x="981.3600000000001" y="288" width="83" height="62" as="geometry" />
        </mxCell>
        <mxCell id="q-aWWqVt3g7oYGVb8VbU-27" value="" style="endArrow=none;dashed=1;html=1;dashPattern=1 3;strokeWidth=2;rounded=0;" parent="1" source="q-aWWqVt3g7oYGVb8VbU-26" target="q-aWWqVt3g7oYGVb8VbU-9" edge="1">
          <mxGeometry width="50" height="50" relative="1" as="geometry">
            <mxPoint x="671.3600000000001" y="330" as="sourcePoint" />
            <mxPoint x="721.3600000000001" y="280" as="targetPoint" />
          </mxGeometry>
        </mxCell>
        <mxCell id="q-aWWqVt3g7oYGVb8VbU-28" value="" style="endArrow=none;html=1;rounded=0;entryX=1;entryY=0.5;entryDx=0;entryDy=0;entryPerimeter=0;" parent="1" source="q-aWWqVt3g7oYGVb8VbU-10" target="pGDAJUQM4cetIJOIX2FF-1" edge="1">
          <mxGeometry width="50" height="50" relative="1" as="geometry">
            <mxPoint x="210" y="330" as="sourcePoint" />
            <mxPoint x="326" y="266.5" as="targetPoint" />
          </mxGeometry>
        </mxCell>
        <mxCell id="q-aWWqVt3g7oYGVb8VbU-30" value="" style="endArrow=none;html=1;rounded=0;entryX=0.99;entryY=0.5;entryDx=0;entryDy=0;entryPerimeter=0;" parent="1" source="q-aWWqVt3g7oYGVb8VbU-26" target="q-aWWqVt3g7oYGVb8VbU-46" edge="1">
          <mxGeometry width="50" height="50" relative="1" as="geometry">
            <mxPoint x="671.3600000000001" y="330" as="sourcePoint" />
            <mxPoint x="930" y="287.70000000000005" as="targetPoint" />
          </mxGeometry>
        </mxCell>
        <mxCell id="q-aWWqVt3g7oYGVb8VbU-31" value="" style="endArrow=none;html=1;rounded=0;" parent="1" source="q-aWWqVt3g7oYGVb8VbU-46" target="q-aWWqVt3g7oYGVb8VbU-9" edge="1">
          <mxGeometry width="50" height="50" relative="1" as="geometry">
            <mxPoint x="930" y="245.29999999999995" as="sourcePoint" />
            <mxPoint x="721.3600000000001" y="280" as="targetPoint" />
          </mxGeometry>
        </mxCell>
        <mxCell id="q-aWWqVt3g7oYGVb8VbU-40" value="&lt;div&gt;&lt;br&gt;&lt;/div&gt;&lt;div&gt;&lt;br&gt;&lt;/div&gt;&lt;div&gt;&lt;br&gt;&lt;/div&gt;&lt;div&gt;&lt;br&gt;&lt;/div&gt;&lt;div&gt;&lt;br&gt;&lt;/div&gt;&lt;div&gt;&lt;br&gt;&lt;/div&gt;&lt;div&gt;&lt;br&gt;&lt;/div&gt;&lt;div&gt;&lt;br&gt;&lt;/div&gt;&lt;div&gt;&lt;br&gt;&lt;/div&gt;&lt;div&gt;&lt;br&gt;&lt;/div&gt;core provider network" style="ellipse;shape=cloud;whiteSpace=wrap;html=1;align=center;fillColor=none;verticalAlign=top;" parent="1" vertex="1">
          <mxGeometry x="20" y="188.25" width="340" height="156.5" as="geometry" />
        </mxCell>
        <mxCell id="q-aWWqVt3g7oYGVb8VbU-42" value="192.168.10.101&lt;div&gt;&lt;br&gt;&lt;/div&gt;&lt;div&gt;Laptop PC&lt;/div&gt;" style="text;html=1;align=center;verticalAlign=middle;whiteSpace=wrap;rounded=0;" parent="1" vertex="1">
          <mxGeometry x="1061.3600000000001" y="140" width="60" height="30" as="geometry" />
        </mxCell>
        <mxCell id="q-aWWqVt3g7oYGVb8VbU-43" value="192.168.10.102&lt;div&gt;raspberry pi&lt;/div&gt;" style="text;html=1;align=center;verticalAlign=middle;whiteSpace=wrap;rounded=0;" parent="1" vertex="1">
          <mxGeometry x="1064.3600000000001" y="293" width="115.64" height="30" as="geometry" />
        </mxCell>
        <mxCell id="q-aWWqVt3g7oYGVb8VbU-44" value="192.168.10.1" style="text;html=1;align=center;verticalAlign=middle;whiteSpace=wrap;rounded=0;" parent="1" vertex="1">
          <mxGeometry x="718" y="230" width="60" height="30" as="geometry" />
        </mxCell>
        <mxCell id="q-aWWqVt3g7oYGVb8VbU-45" value="" style="endArrow=none;html=1;rounded=0;exitX=1;exitY=0.5;exitDx=0;exitDy=0;exitPerimeter=0;" parent="1" source="q-aWWqVt3g7oYGVb8VbU-10" target="q-aWWqVt3g7oYGVb8VbU-46" edge="1">
          <mxGeometry width="50" height="50" relative="1" as="geometry">
            <mxPoint x="740" y="250" as="sourcePoint" />
            <mxPoint x="740" y="120" as="targetPoint" />
          </mxGeometry>
        </mxCell>
        <mxCell id="q-aWWqVt3g7oYGVb8VbU-46" value="switch" style="shape=mxgraph.cisco.hubs_and_gateways.small_hub;sketch=0;html=1;pointerEvents=1;dashed=0;fillColor=#036897;strokeColor=#ffffff;strokeWidth=2;verticalLabelPosition=bottom;verticalAlign=top;align=center;outlineConnect=0;" parent="1" vertex="1">
          <mxGeometry x="790" y="244" width="90" height="45" as="geometry" />
        </mxCell>
        <mxCell id="q-aWWqVt3g7oYGVb8VbU-47" value="82.71.94.21" style="text;whiteSpace=wrap;" parent="1" vertex="1">
          <mxGeometry x="540" y="240" width="100" height="30" as="geometry" />
        </mxCell>
        <mxCell id="q-aWWqVt3g7oYGVb8VbU-55" value="home network" style="rounded=1;whiteSpace=wrap;html=1;verticalAlign=top;fillColor=none;dashed=1;align=center;" parent="1" vertex="1">
          <mxGeometry x="620" y="100" width="570" height="310" as="geometry" />
        </mxCell>
        <mxCell id="q-aWWqVt3g7oYGVb8VbU-56" value="NAT&lt;div&gt;Network Address Trenslation&lt;/div&gt;" style="text;html=1;align=center;verticalAlign=middle;whiteSpace=wrap;rounded=0;" parent="1" vertex="1">
          <mxGeometry x="624" y="180" width="110" height="30" as="geometry" />
        </mxCell>
        <mxCell id="pGDAJUQM4cetIJOIX2FF-1" value="edge or access router" style="shape=mxgraph.cisco.routers.router;sketch=0;html=1;pointerEvents=1;dashed=0;fillColor=#036897;strokeColor=#ffffff;strokeWidth=2;verticalLabelPosition=bottom;verticalAlign=top;align=center;outlineConnect=0;" parent="1" vertex="1">
          <mxGeometry x="190" y="240" width="78" height="53" as="geometry" />
        </mxCell>
        <mxCell id="pGDAJUQM4cetIJOIX2FF-5" value="Network provider uses DHCP to allocate a network address to the home gateway" style="text;html=1;align=left;verticalAlign=top;whiteSpace=wrap;rounded=0;" parent="1" vertex="1">
          <mxGeometry x="470" y="170" width="130" height="70" as="geometry" />
        </mxCell>
        <mxCell id="pGDAJUQM4cetIJOIX2FF-6" value="Home gateway uses DHCP to allocate a local&amp;nbsp; private IP address to the devices in the local network" style="text;html=1;align=left;verticalAlign=top;whiteSpace=wrap;rounded=0;" parent="1" vertex="1">
          <mxGeometry x="690" y="320" width="160" height="30" as="geometry" />
        </mxCell>
      </root>
    </mxGraphModel>
  </diagram>
</mxfile>
